<svg width="197" height="49" viewBox="0 0 197 49" fill="none" xmlns="http://www.w3.org/2000/svg">
<path d="M11.912 39.552H26.248V48H0.968V3.072H11.912V39.552ZM42.412 17.344C43.436 15.68 44.908 14.336 46.828 13.312C48.748 12.288 50.9453 11.776 53.42 11.776C56.364 11.776 59.0307 12.5227 61.42 14.016C63.8093 15.5093 65.6867 17.6427 67.052 20.416C68.46 23.1893 69.164 26.4107 69.164 30.08C69.164 33.7493 68.46 36.992 67.052 39.808C65.6867 42.5813 63.8093 44.736 61.42 46.272C59.0307 47.7653 56.364 48.512 53.42 48.512C50.9027 48.512 48.7053 48.0213 46.828 47.04C44.9507 46.016 43.4787 44.672 42.412 43.008V48H31.468V0.639999H42.412V17.344ZM58.028 30.08C58.028 27.3493 57.26 25.216 55.724 23.68C54.2307 22.1013 52.3747 21.312 50.156 21.312C47.98 21.312 46.124 22.1013 44.588 23.68C43.0947 25.2587 42.348 27.4133 42.348 30.144C42.348 32.8747 43.0947 35.0293 44.588 36.608C46.124 38.1867 47.98 38.976 50.156 38.976C52.332 38.976 54.188 38.1867 55.724 36.608C57.26 34.9867 58.028 32.8107 58.028 30.08ZM72.7295 30.08C72.7295 26.4107 73.4122 23.1893 74.7775 20.416C76.1855 17.6427 78.0842 15.5093 80.4735 14.016C82.8628 12.5227 85.5295 11.776 88.4735 11.776C90.9908 11.776 93.1882 12.288 95.0655 13.312C96.9855 14.336 98.4575 15.68 99.4815 17.344V12.288H110.426V48H99.4815V42.944C98.4148 44.608 96.9215 45.952 95.0015 46.976C93.1242 48 90.9268 48.512 88.4095 48.512C85.5082 48.512 82.8628 47.7653 80.4735 46.272C78.0842 44.736 76.1855 42.5813 74.7775 39.808C73.4122 36.992 72.7295 33.7493 72.7295 30.08ZM99.4815 30.144C99.4815 27.4133 98.7135 25.2587 97.1775 23.68C95.6842 22.1013 93.8495 21.312 91.6735 21.312C89.4975 21.312 87.6415 22.1013 86.1055 23.68C84.6122 25.216 83.8655 27.3493 83.8655 30.08C83.8655 32.8107 84.6122 34.9867 86.1055 36.608C87.6415 38.1867 89.4975 38.976 91.6735 38.976C93.8495 38.976 95.6842 38.1867 97.1775 36.608C98.7135 35.0293 99.4815 32.8747 99.4815 30.144ZM140.103 11.904C144.284 11.904 147.612 13.2693 150.087 16C152.604 18.688 153.863 22.4 153.863 27.136V48H142.983V28.608C142.983 26.2187 142.364 24.3627 141.127 23.04C139.89 21.7173 138.226 21.056 136.135 21.056C134.044 21.056 132.38 21.7173 131.143 23.04C129.906 24.3627 129.287 26.2187 129.287 28.608V48H118.343V12.288H129.287V17.024C130.396 15.4453 131.89 14.208 133.767 13.312C135.644 12.3733 137.756 11.904 140.103 11.904ZM183.292 48L172.412 33.024V48H161.468V0.639999H172.412V26.816L183.228 12.288H196.732L181.884 30.208L196.86 48H183.292Z" fill="white"/>
</svg>
